<svg width="19" height="19" viewBox="0 0 19 19" fill="none" xmlns="http://www.w3.org/2000/svg">
<path fill-rule="evenodd" clip-rule="evenodd" d="M13.8186 18.269C12.5586 18.2226 8.9877 17.7291 5.24795 13.9902C1.50907 10.2505 1.01645 6.6805 0.969196 5.41962C0.899196 3.49812 2.37095 1.63175 4.07107 0.902874C4.2758 0.81447 4.5 0.780812 4.72166 0.805202C4.94332 0.829593 5.15484 0.911194 5.33545 1.042C6.73545 2.06225 7.70145 3.60575 8.53095 4.81937C8.71346 5.08601 8.79149 5.41048 8.75018 5.73095C8.70887 6.05141 8.55111 6.34548 8.30695 6.55712L6.59982 7.825C6.51735 7.88456 6.45929 7.97202 6.43644 8.07116C6.41359 8.17029 6.42749 8.27435 6.47557 8.364C6.86232 9.06662 7.55007 10.1131 8.33757 10.9006C9.12595 11.6881 10.2214 12.4214 10.9731 12.8519C11.0673 12.9048 11.1782 12.9196 11.283 12.8932C11.3879 12.8668 11.4786 12.8013 11.5366 12.7101L12.6478 11.0187C12.8521 10.7474 13.1535 10.5656 13.4889 10.5114C13.8242 10.4573 14.1675 10.535 14.4468 10.7282C15.6779 11.5805 17.1147 12.5299 18.1664 13.8765C18.3079 14.0584 18.3978 14.275 18.4269 14.5036C18.456 14.7321 18.4232 14.9643 18.3318 15.1759C17.5994 16.8848 15.7462 18.3399 13.8186 18.269Z" fill="#EDEDED"/>
</svg>
